<svg width="24" height="22" viewBox="0 0 24 22" fill="none" xmlns="http://www.w3.org/2000/svg">
<path d="M20.2396 16.648L20.2396 16.6472L19.3384 5.95613C19.3384 5.95598 19.3384 5.95584 19.3384 5.95569C19.2704 5.12507 18.5318 4.49801 17.6807 4.49801H16.1467C16.0495 2.40289 14.2134 0.75 12 0.75C9.7867 0.75 7.95059 2.40289 7.85344 4.49801H6.31944C5.46849 4.49801 4.72957 5.12488 4.66184 5.95434C4.66183 5.95446 4.66182 5.95458 4.66181 5.95471L3.76042 16.6487L3.76036 16.6494C3.68451 17.5805 4.02778 18.5037 4.69686 19.1839C5.36532 19.8634 6.3089 20.25 7.28565 20.25H16.7144C17.6911 20.25 18.6347 19.8634 19.3032 19.1839L19.125 19.0085L19.3032 19.1839C19.9724 18.5036 20.3155 17.5804 20.2396 16.648ZM6.33611 6.11092H7.8494V7.23155C7.8494 7.6909 8.24035 8.03801 8.6904 8.03801C9.14045 8.03801 9.53139 7.6909 9.53139 7.23155V6.11092H14.4687V7.23155C14.4687 7.6909 14.8596 8.03801 15.3097 8.03801C15.7598 8.03801 16.1507 7.6909 16.1507 7.23155V6.11092H17.664L18.5629 16.7751C18.5629 16.7753 18.5629 16.7754 18.5629 16.7756C18.602 17.257 18.4329 17.7178 18.0796 18.077C17.7255 18.4369 17.2424 18.6371 16.7144 18.6371H7.28569C6.75769 18.6371 6.27456 18.4369 5.92049 18.077C5.56709 17.7177 5.39813 17.2568 5.43716 16.7769C5.43717 16.7768 5.43718 16.7767 5.43719 16.7766L6.33611 6.11092ZM9.53844 4.49801C9.63393 3.31763 10.6888 2.36291 12 2.36291C13.3113 2.36291 14.3662 3.31766 14.4617 4.49801H9.53844Z" fill="white" stroke="white" stroke-width="0.5"/>
</svg>
