<svg width="9" height="13" viewBox="0 0 9 13" fill="none" xmlns="http://www.w3.org/2000/svg">
<path d="M8.19087 5.6243L2.96154 0.394969C2.84689 0.279371 2.71048 0.187618 2.56018 0.125003C2.40989 0.0623882 2.24869 0.0301514 2.08587 0.0301514C1.92306 0.0301514 1.76185 0.0623882 1.61156 0.125003C1.46127 0.187618 1.32486 0.279371 1.21021 0.394969C0.980497 0.62605 0.851562 0.93864 0.851562 1.26447C0.851562 1.5903 0.980497 1.90289 1.21021 2.13397L5.57621 6.49997L1.21021 10.866C0.980497 11.097 0.851562 11.4096 0.851562 11.7355C0.851563 12.0613 0.980497 12.3739 1.21021 12.605C1.32545 12.7193 1.46212 12.8097 1.61239 12.8711C1.76265 12.9325 1.92356 12.9636 2.08587 12.9626C2.24819 12.9636 2.40909 12.9325 2.55936 12.8711C2.70962 12.8097 2.8463 12.7193 2.96154 12.605L8.19087 7.37564C8.30647 7.26098 8.39822 7.12457 8.46084 6.97428C8.52345 6.82399 8.55569 6.66278 8.55569 6.49997C8.55569 6.33715 8.52345 6.17595 8.46084 6.02566C8.39822 5.87536 8.30647 5.73896 8.19087 5.6243Z" fill="#242E56"/>
</svg>
