<svg width="9" height="14" viewBox="0 0 9 14" fill="none" xmlns="http://www.w3.org/2000/svg">
<path d="M3.62499 6.49997L7.99099 2.13397C8.2207 1.90289 8.34964 1.5903 8.34964 1.26447C8.34964 0.93864 8.2207 0.62605 7.99099 0.394969C7.87634 0.279371 7.73993 0.187618 7.58964 0.125003C7.43934 0.0623882 7.27814 0.0301514 7.11533 0.0301514C6.95251 0.0301514 6.79131 0.0623882 6.64101 0.125003C6.49072 0.187618 6.35431 0.279371 6.23966 0.394969L1.01033 5.6243C0.894727 5.73896 0.802975 5.87536 0.74036 6.02566C0.677745 6.17595 0.645508 6.33715 0.645508 6.49997C0.645508 6.66278 0.677745 6.82399 0.74036 6.97428C0.802975 7.12457 0.894727 7.26098 1.01033 7.37564L6.23966 12.6666C6.3549 12.7809 6.49157 12.8714 6.64184 12.9328C6.79211 12.9941 6.95301 13.0252 7.11533 13.0243C7.27764 13.0252 7.43854 12.9941 7.58881 12.9328C7.73908 12.8714 7.87575 12.7809 7.99099 12.6666C8.2207 12.4356 8.34964 12.123 8.34964 11.7971C8.34964 11.4713 8.2207 11.1587 7.99099 10.9276L3.62499 6.49997Z" fill="#242E56"/>
</svg>
