<svg width="79" height="22" viewBox="0 0 79 22" fill="none" xmlns="http://www.w3.org/2000/svg">
<path d="M3.97848 5.87463H0.34668V17.3022H3.97848V5.87463Z" fill="#242E56"/>
<path d="M2.163 4.41613C3.28963 4.41613 4.20295 3.51786 4.20295 2.40979C4.20295 1.30171 3.28963 0.403442 2.163 0.403442C1.03636 0.403442 0.123047 1.30171 0.123047 2.40979C0.123047 3.51786 1.03636 4.41613 2.163 4.41613Z" fill="#952228"/>
<path d="M13.7271 5.61133C10.4513 5.61133 7.78613 8.23259 7.78613 11.4545V17.2856H11.4179V11.4545C11.4179 10.2022 12.4539 9.18331 13.7271 9.18331C15.0004 9.18331 16.0364 10.2022 16.0364 11.4545V17.2856H19.6682V11.4545C19.6682 8.2326 17.003 5.61133 13.7271 5.61133Z" fill="#242E56"/>
<path d="M30.3038 9.67546L32.0565 7.06118C30.6957 6.15592 29.5843 5.61133 27.6805 5.61133C26.0415 5.61133 23.3162 6.50038 23.3162 9.23023C23.3162 13.3101 28.7252 12.7568 28.7252 14.0022C28.7252 14.3104 28.4074 14.6643 27.6805 14.6643C26.9537 14.6643 25.33 14.101 24.6394 13.3514L22.8867 15.8059C22.8867 15.8059 24.6471 17.5256 27.7313 17.5256C30.8155 17.5256 32.3467 15.7464 32.3467 13.867C32.3467 9.9542 26.8564 10.3343 26.8564 9.07041C26.8564 8.89558 26.932 8.48819 27.6573 8.48819C28.3826 8.48819 29.0952 8.68844 30.3038 9.67546Z" fill="#242E56"/>
<path d="M41.8678 5.62354C38.5919 5.62354 35.9268 8.24482 35.9268 11.4667H39.5586C39.5586 10.2144 40.5945 9.19553 41.8678 9.19553C43.141 9.19553 44.177 10.2144 44.177 11.4667V17.2978H47.8088V11.4667C47.8088 8.24482 45.1436 5.62354 41.8678 5.62354Z" fill="#242E56"/>
<path d="M39.5585 0.0899658H35.9268V17.2978H39.5585V0.0899658Z" fill="#952228"/>
<path d="M39.5585 11.4667V6.08313C37.4264 6.97115 35.9268 9.04993 35.9268 11.4667" fill="#5C283F"/>
<path d="M57.1586 17.5396C53.815 17.5396 51.0947 14.8641 51.0947 11.5755C51.0947 8.28682 53.815 5.61133 57.1586 5.61133C60.5025 5.61133 63.2228 8.28682 63.2228 11.5755C63.2228 14.8641 60.5025 17.5396 57.1586 17.5396ZM57.1586 9.1833C55.8176 9.1833 54.7265 10.2564 54.7265 11.5755C54.7265 12.8945 55.8176 13.9676 57.1586 13.9676C58.4999 13.9676 59.591 12.8945 59.591 11.5755C59.591 10.2564 58.4999 9.1833 57.1586 9.1833Z" fill="#242E56"/>
<path d="M70.3984 5.85803H66.7666V21.9205H70.3984V5.85803Z" fill="#952228"/>
<path d="M72.8308 17.5396C69.4869 17.5396 66.7666 14.8641 66.7666 11.5755C66.7666 8.28682 69.4869 5.61133 72.8308 5.61133C76.1746 5.61133 78.8949 8.28682 78.8949 11.5755C78.8949 14.8641 76.1746 17.5396 72.8308 17.5396ZM72.8308 9.18331C71.4895 9.18331 70.3984 10.2564 70.3984 11.5755C70.3984 12.8945 71.4895 13.9676 72.8308 13.9676C74.1721 13.9676 75.2631 12.8945 75.2631 11.5755C75.2631 10.2564 74.1721 9.18331 72.8308 9.18331Z" fill="#242E56"/>
<path d="M70.3984 17.035V6.11597C68.263 7.03992 66.7666 9.13776 66.7666 11.5755C66.7666 14.0132 68.263 16.111 70.3984 17.035Z" fill="#5C283F"/>
</svg>
